<svg xmlns="http://www.w3.org/2000/svg" width="2400" height="600" viewBox="0 0 2400 600">
  <title>AGON horizontal lockup final</title>
  <desc>Horizontal AGON lockup with mountain icon left, condensed wordmark right, and topographic contour overlay on the wordmark only.</desc>
  <rect width="2400" height="600" fill="#A8A192"/>
  <g id="agon-lockup">
    <g id="mountain-icon" transform="translate(150 135) scale(0.405)"
       fill="none" stroke="#A0432E" stroke-width="58" stroke-linecap="butt" stroke-linejoin="miter">
      <path d="M165 690 L342 690 L512 300 L655 598 L690 575 L840 690 L575 690 L510 648 L445 690 L165 690 Z"/>
    </g>
    <circle cx="357.4" cy="218.0" r="17.0" fill="#A0432E"/>

    <text x="620" y="414"
          font-family="Impact, Arial Narrow, Liberation Sans Narrow, DejaVu Sans Condensed, sans-serif"
          font-size="360"
          font-weight="900"
          letter-spacing="-18"
          fill="#A0432E">AGON</text>

    <g id="topographic-contour-overlay" clip-path="url(#wordmark-area)">
      <path d="M640,205 C704.4,205.0 768.7,195.0 835.0,209.3 C899.4,213.4 963.7,198.8 1030.0,211.0 C1094.3,214.1 1158.7,207.3 1225.0,209.1 C1289.3,206.4 1353.7,214.0 1420.0,204.6 C1484.3,197.4 1548.7,214.0 1615.0,200.5 C1679.3,195.4 1743.7,207.1 1810.0,199.0 C1874.3,202.2 1938.7,198.7 2005.0,201.2 C2069.3,211.6 2133.7,195.0 2200.0,205.7" fill="none" stroke="#8C3826" stroke-width="8" stroke-linecap="round" opacity="0.48"/>
<path d="M640,234 C704.4,241.7 768.7,227.5 835.0,240.9 C899.4,245.9 963.7,237.9 1030.0,240.2 C1094.3,239.1 1158.7,245.3 1225.0,235.7 C1289.3,227.6 1353.7,244.2 1420.0,230.2 C1484.3,222.0 1548.7,235.3 1615.0,227.0 C1679.3,227.4 1743.7,225.5 1810.0,228.0 C1874.3,238.9 1938.7,222.1 2005.0,232.7 C2069.3,245.9 2133.7,227.7 2200.0,238.2" fill="none" stroke="#8C3826" stroke-width="8" stroke-linecap="round" opacity="0.48"/>
<path d="M640,263 C704.4,276.8 768.7,268.8 835.0,271.2 C899.4,272.5 963.7,276.6 1030.0,267.3 C1094.3,259.4 1158.7,274.1 1225.0,260.9 C1289.3,249.7 1353.7,263.2 1420.0,255.7 C1484.3,252.2 1548.7,252.1 1615.0,254.9 C1679.3,264.6 1743.7,249.3 1810.0,259.1 C1874.3,275.6 1938.7,256.9 2005.0,265.6 C2069.3,275.0 2133.7,269.0 2200.0,270.5" fill="none" stroke="#8C3826" stroke-width="8" stroke-linecap="round" opacity="0.48"/>
<path d="M640,292 C704.4,300.6 768.7,301.9 835.0,296.5 C899.4,292.4 963.7,299.3 1030.0,292.2 C1094.3,283.8 1158.7,291.1 1225.0,287.9 C1289.3,282.7 1353.7,283.7 1420.0,286.0 C1484.3,290.2 1548.7,282.5 1615.0,287.8 C1679.3,299.3 1743.7,288.5 1810.0,292.1 C1874.3,301.7 1938.7,297.2 2005.0,296.4 C2069.3,295.2 2133.7,301.9 2200.0,298.0" fill="none" stroke="#8C3826" stroke-width="8" stroke-linecap="round" opacity="0.48"/>
<path d="M640,321 C704.4,325.0 768.7,328.8 835.0,323.4 C899.4,313.7 963.7,318.8 1030.0,317.8 C1094.3,309.0 1158.7,310.4 1225.0,314.1 C1289.3,315.4 1353.7,310.0 1420.0,314.6 C1484.3,326.9 1548.7,318.0 1615.0,319.0 C1679.3,333.0 1743.7,328.2 1810.0,324.6 C1874.3,328.0 1938.7,333.0 2005.0,328.0 C2069.3,316.6 2133.7,328.7 2200.0,327.2" fill="none" stroke="#8C3826" stroke-width="8" stroke-linecap="round" opacity="0.48"/>
<path d="M640,350 C704.4,345.1 768.7,346.0 835.0,348.7 C899.4,336.3 963.7,337.0 1030.0,343.1 C1094.3,340.1 1158.7,337.8 1225.0,341.7 C1289.3,353.0 1353.7,347.9 1420.0,345.4 C1484.3,363.1 1548.7,359.5 1615.0,351.8 C1679.3,361.2 1743.7,364.0 1810.0,357.1 C1874.3,348.9 1938.7,357.9 2005.0,358.1 C2069.3,337.7 2133.7,345.8 2200.0,354.2" fill="none" stroke="#8C3826" stroke-width="8" stroke-linecap="round" opacity="0.48"/>
<path d="M640,379 C704.4,370.3 768.7,369.4 835.0,375.3 C899.4,370.2 963.7,370.8 1030.0,373.0 C1094.3,378.2 1158.7,378.5 1225.0,374.4 C1289.3,386.9 1353.7,386.5 1420.0,378.5 C1484.3,388.4 1548.7,388.8 1615.0,382.9 C1679.3,381.2 1743.7,383.8 1810.0,385.0 C1874.3,372.0 1938.7,375.1 2005.0,383.4 C2069.3,369.2 2133.7,369.4 2200.0,379.1" fill="none" stroke="#8C3826" stroke-width="8" stroke-linecap="round" opacity="0.48"/>
    </g>
  </g>

  <defs>
    <clipPath id="wordmark-area">
      <rect x="620" y="105" width="1580" height="370"/>
    </clipPath>
  </defs>
</svg>