<svg xmlns="http://www.w3.org/2000/svg" viewBox="0 0 271 244.5" width="271" height="244.5">
  <path fill="#101A26" d="M 136.0 74.5 L 253.0 226.5 L 174.5 226.5 C 174.31 226.5 173.92 226.5 173.33 226.5 C 172.75 226.5 171.36 226.5 171.0 226.5 C 170.64 226.5 170.23 227.19 171.17 226.5 C 172.1 225.81 173.99 224.39 176.61 222.33 C 179.22 220.27 184.95 216.85 186.83 214.13 C 188.72 211.41 188.3 207.93 187.94 206.0 C 187.57 204.07 187.24 203.97 184.67 202.54 C 182.09 201.12 175.72 198.48 172.5 197.45 C 169.28 196.42 172.19 198.23 165.33 196.38 C 158.47 194.54 137.69 188.4 131.33 186.38 C 124.97 184.37 128.56 185.49 127.17 184.29 C 125.77 183.09 123.49 180.6 122.97 179.17 C 122.44 177.74 123.47 176.66 124.0 175.72 C 124.53 174.78 124.78 174.42 126.17 173.54 C 127.56 172.66 125.53 172.76 132.33 170.45 C 139.13 168.14 163.4 164.8 166.98 159.67 C 170.56 154.54 159.06 147.04 153.81 139.67 C 148.57 132.29 141.47 115.76 135.5 115.42 C 129.53 115.09 122.13 132.04 118.02 137.67 C 113.91 143.29 115.98 142.0 110.81 149.17 C 105.65 156.33 91.85 173.94 87.02 180.67 C 82.19 187.39 82.12 187.71 81.84 189.5 C 81.56 191.29 76.22 189.06 85.33 191.38 C 94.44 193.71 127.41 200.9 136.5 203.45 C 145.59 206.0 139.5 205.69 139.86 206.67 C 140.23 207.65 142.23 207.71 138.67 209.33 C 135.11 210.95 128.56 213.52 118.5 216.38 C 108.44 219.25 85.03 224.81 78.33 226.5 L 18.0 226.5 Z"/>
  <circle fill="#9F4FF2" cx="134.5" cy="40.0" r="22.0"/>
</svg>
