<svg xmlns="http://www.w3.org/2000/svg" viewBox="0 0 782 248" width="782" height="248">
  <g fill="#FFFFFF">
    <path d="M 137.0 78.0 L 253.0 229.0 L 175.17 229.0 C 174.98 229.0 174.59 229.0 174.01 229.0 C 173.43 229.0 172.06 229.0 171.7 229.0 C 171.34 229.0 170.94 229.69 171.86 229.0 C 172.79 228.31 174.67 226.91 177.26 224.86 C 179.84 222.81 185.52 219.42 187.4 216.71 C 189.27 214.01 188.85 210.55 188.49 208.63 C 188.13 206.72 187.8 206.62 185.25 205.2 C 182.7 203.78 176.38 201.16 173.19 200.14 C 169.99 199.12 172.88 200.91 166.08 199.08 C 159.28 197.25 138.68 191.15 132.37 189.15 C 126.06 187.15 129.62 188.26 128.24 187.07 C 126.85 185.87 124.6 183.4 124.07 181.98 C 123.55 180.56 124.57 179.48 125.1 178.55 C 125.63 177.62 125.87 177.26 127.25 176.39 C 128.62 175.52 126.62 175.62 133.36 173.32 C 140.1 171.02 164.16 167.7 167.71 162.61 C 171.26 157.51 159.86 150.06 154.66 142.74 C 149.46 135.41 142.41 118.99 136.5 118.65 C 130.59 118.32 123.25 135.16 119.17 140.75 C 115.09 146.34 117.15 145.06 112.02 152.18 C 106.9 159.29 93.22 176.79 88.43 183.47 C 83.65 190.15 83.58 190.47 83.3 192.24 C 83.02 194.02 77.73 191.81 86.76 194.11 C 95.79 196.42 128.48 203.57 137.49 206.1 C 146.5 208.63 140.47 208.32 140.83 209.3 C 141.19 210.27 143.17 210.33 139.64 211.94 C 136.11 213.55 129.61 216.11 119.64 218.95 C 109.67 221.79 86.46 227.33 79.82 229.0 L 20.0 229.0 Z"/>
    <path transform="translate(320.979248046875,135.77294921875)" d="M0 0 C0.51774239 -0.00014603 0.51774239 -0.00014603 3.13783264 -0.00088501 C6.51946753 0.00049493 9.90087488 0.01599262 13.2824707 0.03173828 C15.64329406 0.03547317 18.00411899 0.03831789 20.36494446 0.04031372 C26.5478857 0.04791271 32.73073147 0.06752884 38.91363525 0.08972168 C45.23513498 0.11026089 51.55665028 0.11933264 57.87817383 0.12939453 C70.25907492 0.1507785 82.63990546 0.18486895 95.02075195 0.22705078 C93.86116996 3.81069239 92.79753169 6.93861715 90.6730957 10.05908203 C90.23288086 10.71199219 89.79266602 11.36490234 89.33911133 12.03759766 C88.88342773 12.69824219 88.42774414 13.35888672 87.95825195 14.03955078 C87.49870117 14.71953125 87.03915039 15.39951172 86.56567383 16.10009766 C83.21982513 21.02797761 83.21982513 21.02797761 82.02075195 22.22705078 C79.12134579 22.32574841 76.24506967 22.36003414 73.34521484 22.35302734 C72.43454254 22.35489548 71.52387024 22.35676361 70.58560181 22.35868835 C68.59942471 22.36270366 66.61324296 22.36476822 64.62706184 22.36515045 C60.39886735 22.36855784 56.17082773 22.38991795 51.94268703 22.41038132 C44.0646366 22.44841391 36.18674635 22.47967368 28.30859375 22.47753906 C22.83478603 22.47674957 17.36153799 22.50022513 11.88787651 22.53942108 C9.80564328 22.54985367 7.72334522 22.55142542 5.64109993 22.54376984 C-16.27854361 22.47127275 -16.27854361 22.47127275 -22.97924805 28.22705078 C-28.88854217 35.49773949 -28.95371967 44.2333396 -28.29858398 53.22753906 C-27.36268592 59.08763471 -24.55857979 63.48032481 -19.97924805 67.22705078 C-14.57515028 70.01408186 -10.3194842 70.67053144 -4.29003906 70.65942383 C-3.45020981 70.66961548 -2.61038055 70.67980713 -1.74510193 70.69030762 C1.00894959 70.72031102 3.76265257 70.72968409 6.5168457 70.73876953 C8.43499394 70.75562561 10.3531312 70.7737771 12.27125549 70.79316711 C17.30338102 70.84057229 22.335462 70.87044297 27.36773682 70.89660645 C32.50932612 70.92645985 37.65076209 70.97297376 42.79223633 71.01806641 C52.86834543 71.10399178 62.94443884 71.1698439 73.02075195 71.22705078 C73.02075195 65.94705078 73.02075195 60.66705078 73.02075195 55.22705078 C53.22075195 55.22705078 33.42075195 55.22705078 13.02075195 55.22705078 C18.78336696 40.82051326 18.78336696 40.82051326 24.02075195 36.22705078 C29.60619271 34.31130758 34.81263364 34.5782954 40.6496582 34.85986328 C42.25096429 34.88601699 43.8523834 34.90592574 45.45384216 34.91989136 C49.64417715 34.97303875 53.82758009 35.11021642 58.01519775 35.26574707 C62.29799588 35.40967759 66.58192925 35.47305093 70.86645508 35.54345703 C79.25438238 35.69304846 87.63670223 35.93154351 96.02075195 36.22705078 C96.04388111 43.51126626 96.06166997 50.79547388 96.07256413 58.07971859 C96.0777917 61.46176891 96.08488706 64.84379418 96.09619141 68.22583008 C96.10909462 72.11034855 96.11398119 75.99485675 96.1184082 79.87939453 C96.12356949 81.09916489 96.12873077 82.31893524 96.13404846 83.57566833 C96.13412399 84.69675491 96.13419952 85.81784149 96.13427734 86.97290039 C96.13649796 87.96551376 96.13871857 88.95812714 96.14100647 89.9808197 C96.02075195 92.22705078 96.02075195 92.22705078 95.02075195 93.22705078 C93.67370821 93.32883341 92.32140862 93.36222317 90.97053528 93.36749268 C90.09749252 93.37320282 89.22444977 93.37891296 88.32495117 93.38479614 C87.84215698 93.38535507 87.84215698 93.38535507 85.39892578 93.38818359 C84.89315758 93.39066605 84.89315758 93.39066605 82.33366394 93.40322876 C78.96503022 93.41790808 75.59644375 93.4246659 72.2277832 93.43017578 C69.88620502 93.43592746 67.54462686 93.44168519 65.20304871 93.44744873 C60.27745341 93.45797846 55.35187451 93.46380657 50.42626953 93.46728516 C44.14436034 93.47273987 37.8626712 93.49669437 31.58083057 93.52525711 C26.73434342 93.54398616 21.88790783 93.54909478 17.04138756 93.55062103 C14.72797139 93.55363066 12.41455575 93.56160143 10.10117531 93.57480621 C-8.29556212 93.67222034 -25.85584713 93.72807789 -40.29174805 80.60205078 C-50.16430497 69.99969499 -52.57684652 57.18940041 -52.2331543 43.23876953 C-51.64633218 30.83883489 -47.15264913 20.62082102 -38.72924805 11.62939453 C-27.6535054 1.95385231 -14.25407934 -0.10770433 0 0 Z "/>
    <path transform="translate(497.8203125,135.796875)" d="M0 0 C0.75850124 -0.00282738 1.51700249 -0.00565475 2.29848862 -0.00856781 C6.3152068 -0.02349715 10.33188967 -0.03276523 14.34863281 -0.03710938 C18.45676621 -0.04257514 22.56456505 -0.06658098 26.67259407 -0.09508133 C29.86773566 -0.11388367 33.0627996 -0.11892262 36.25799179 -0.12044525 C37.77037249 -0.1234344 39.28275309 -0.13133298 40.79507828 -0.14463043 C56.51464994 -0.27295167 71.654299 1.4247351 83.9296875 12.203125 C95.79619739 24.95818998 95.96297425 40.74805233 95.39306641 57.14404297 C94.63238492 68.04946518 89.17573142 75.99100696 81.1796875 83.203125 C71.51213267 91.07051445 61.17767881 93.31076504 48.85839844 93.34838867 C48.16303482 93.35174728 47.4676712 93.3551059 46.75123596 93.35856628 C44.47215952 93.36799714 42.19315719 93.37001554 39.9140625 93.37109375 C38.31374075 93.37431227 36.71341929 93.37767678 35.11309814 93.38117981 C31.76435668 93.38715179 28.41564094 93.38902175 25.06689453 93.38842773 C20.80269466 93.38832633 16.53866212 93.4019644 12.2745018 93.41919994 C8.96967836 93.43038968 5.66489445 93.4323448 2.36005402 93.43181801 C0.78938471 93.43298818 -0.78128595 93.43735504 -2.35193634 93.44515038 C-18.1883698 93.51638084 -33.33727235 92.13768751 -45.7578125 81.140625 C-54.39341836 71.49423576 -57.00331417 60.0191881 -57.0703125 47.515625 C-57.0909375 46.57267578 -57.1115625 45.62972656 -57.1328125 44.65820312 C-57.19766898 32.86243166 -53.37127667 21.61482669 -45.453125 12.67578125 C-32.03136923 0.57051349 -17.1272288 0.04331567 0 0 Z M-31.3203125 29.890625 C-35.30601303 38.69238034 -35.49192938 47.734369 -33.8203125 57.203125 C-32.22393263 61.03816001 -30.65523629 63.80965835 -27.4453125 66.453125 C-27.16300781 66.69289063 -27.16300781 66.69289063 -25.734375 67.90625 C-21.07471753 71.06340567 -16.98567265 71.46130305 -11.41894531 71.49365234 C-10.69140045 71.50036957 -9.96385559 71.50708679 -9.21426392 71.51400757 C-6.81725159 71.53295054 -4.42051996 71.53691021 -2.0234375 71.5390625 C-0.34820442 71.54549429 1.32702755 71.55222293 3.0022583 71.55923462 C6.5125997 71.57119905 10.02284278 71.57491643 13.53320312 71.57373047 C18.01308367 71.57352762 22.49232742 71.60079768 26.97205734 71.63527489 C30.43295132 71.65760782 33.89369377 71.66156602 37.3546524 71.66051102 C39.00514159 71.66285859 40.65563548 71.67163423 42.30605316 71.68717575 C60.9020251 71.8458582 60.9020251 71.8458582 67.74456787 65.82650757 C73.77093268 59.24799172 73.62322472 51.42953969 73.421875 43.05859375 C72.94336425 35.4410113 70.52060395 30.97617083 65.09375 25.6484375 C60.60696664 22.26045823 56.16654059 21.90202032 50.70239258 21.89672852 C50.33454651 21.89256676 50.33454651 21.89256676 48.47302246 21.87150574 C46.0483668 21.84747439 43.62398077 21.83864062 41.19921875 21.83203125 C39.50396142 21.82305724 37.80870487 21.81393526 36.1134491 21.80467224 C32.56023235 21.78819659 29.00710963 21.78048517 25.45385742 21.77758789 C20.92238877 21.77221621 16.39181667 21.73458099 11.86060047 21.68884373 C8.35762897 21.65895042 4.85486975 21.65186163 1.35178185 21.65086174 C-0.31743778 21.64668104 -1.9866593 21.63433399 -3.65575218 21.61334419 C-14.20659573 21.49125938 -23.66048944 21.65631521 -31.3203125 29.890625 Z "/>
    <path transform="translate(616,137)" d="M0 0 C3.20779949 -0.04478885 6.41551749 -0.07178806 9.62353516 -0.09570312 C10.52697159 -0.10853333 11.43040802 -0.12136353 12.36122131 -0.13458252 C24.65601038 -0.20329787 32.69169208 4.6241039 42.625 11.5 C43.57761719 12.14453125 44.53023437 12.7890625 45.51171875 13.453125 C49.96517878 16.48077372 54.38273852 19.55396684 58.76611328 22.68188477 C70.52621429 31.06665598 82.54145865 39.02788827 94.625 46.9375 C97.57799159 48.87287724 100.53040518 50.80912312 103.48178101 52.7469635 C105.2983297 53.93946298 107.11583358 55.13050921 108.93447876 56.31980896 C109.75999237 56.86130081 110.58550598 57.40279266 111.43603516 57.96069336 C111.79345291 58.19463554 111.79345291 58.19463554 113.60220337 59.37852478 C116.77658572 61.52515484 119.88172026 63.77265733 123 66 C123.33 44.22 123.66 22.44 124 0 C131.59 0 139.18 0 147 0 C147 30.03 147 60.06 147 91 C138.44370225 93.85209925 125.35536252 93.02739113 117.13134766 89.10986328 C110.09086578 85.34820231 103.57153109 80.76111109 97 76.25 C95.76475481 75.40642543 94.52923576 74.56325176 93.29345703 73.72045898 C90.76366033 71.99442599 88.23522715 70.26642555 85.70800781 68.53662109 C80.1040707 64.70153262 74.48980023 60.88166219 68.875 57.0625 C67.84584473 56.36213623 66.81668945 55.66177246 65.75634766 54.94018555 C57.71057121 49.47006636 49.62941472 44.05518787 41.52246094 38.67626953 C35.6767298 34.7915628 29.83933029 30.89431877 24 27 C23.99484627 27.39978813 23.99484627 27.39978813 23.96876526 29.42295837 C23.87095918 36.94267296 23.76846935 44.46230193 23.66066074 51.98187923 C23.60539645 55.8481601 23.551971 59.71444848 23.50268555 63.58081055 C23.4550935 67.30910087 23.40275285 71.03729652 23.34705925 74.76547432 C23.32661222 76.19086933 23.30790309 77.61629032 23.29092598 79.04173088 C23.26693404 81.03170541 23.23629864 83.02159655 23.20532227 85.01147461 C23.18977798 86.14620712 23.1742337 87.28093964 23.15821838 88.45005798 C23 91 23 91 22 92 C20.45044441 92.09899523 18.89646327 92.13079524 17.34375 92.1328125 C16.87388672 92.13345703 16.87388672 92.13345703 14.49609375 92.13671875 C14.00173828 92.13478516 14.00173828 92.13478516 11.5 92.125 C10.51128906 92.12886719 9.52257812 92.13273437 8.50390625 92.13671875 C7.56417969 92.13542969 6.62445312 92.13414062 5.65625 92.1328125 C4.78806641 92.13168457 3.91988281 92.13055664 3.02539062 92.12939453 C1 92 1 92 0 91 C-0.09520906 88.16959328 -0.12553631 85.36365007 -0.11352539 82.53295898 C-0.11367142 81.64523804 -0.11381744 80.75751709 -0.1139679 79.84289551 C-0.11326843 76.89393716 -0.10547448 73.94504113 -0.09765625 70.99609375 C-0.09579219 68.95728083 -0.09436823 66.91846746 -0.09336853 64.87965393 C-0.08954241 59.50215426 -0.07971132 54.12468142 -0.06866455 48.74719238 C-0.05845245 43.26440799 -0.05387134 37.78161928 -0.04882812 32.29882812 C-0.03808914 21.53254027 -0.02101159 10.76627236 0 0 Z "/>
  </g>
  <circle fill="#9F4FF2" cx="136.0" cy="42.5" r="22.75"/>
</svg>
